# xmcd
#
# Track frame offsets: 
#        187
#        13660
#        26637
#        37640
#        49322
#        65307
#        76100
#        89062
#        102227
#        117505
#        132187
#        148822
#        164305
#        177827
#        194710
#        211785
#
# Disc length: 2991 seconds
#
# Revision: 4
# Processed by: cddbd v1.5.2PL0 Copyright (c) Steve Scherf et al.
# Submitted via: ExactAudioCopy v1.3
#
DISCID=db0bad10
DTITLE=Various Artist - Country Jukebox
DYEAR=1986
DGENRE=Country
TTITLE0=John Anderson - Black Sheep
TTITLE1=Hank Williams Jr. - Women I've Never Had
TTITLE2=Forester Sisters - Just In Case
TTITLE3=Conway Twitty - Don't Call Him A Cowboy
TTITLE4=Gary Morris - The Love She Found In Me
TTITLE5=Eddie Rabbitt - Two Dollars In The Jukebox
TTITLE6=Johnny Lee - Sounds Like Love
TTITLE7=Crystal Gayle - Turning Away
TTITLE8=Southern Pacific - Reno Bound
TTITLE9=Nitty Gritty Dirt Band - High Horse
TTITLE10=Billy Joe Royal - Burned Like A Rocket
TTITLE11=Jerry Lee Lewis - Rockin' My Life Away
TTITLE12=Randy Travis - 1982
TTITLE13=Emmylou Harris - Born To Run
TTITLE14=Kieran Kane - Gonna Have A Party
TTITLE15=Dwight Yoakam - Honky Tonk Man
EXTD=
EXTT0=
EXTT1=
EXTT2=
EXTT3=
EXTT4=
EXTT5=
EXTT6=
EXTT7=
EXTT8=
EXTT9=
EXTT10=
EXTT11=
EXTT12=
EXTT13=
EXTT14=
EXTT15=
PLAYORDER=
